<svg xmlns="http://www.w3.org/2000/svg" width="26" height="32.5" viewBox="0 0 26 32.5">
  <g id="Group_77" data-name="Group 77" transform="translate(-287 -364)">
    <path id="Path_124" data-name="Path 124" d="M4,29.625V6.875A4.875,4.875,0,0,1,8.875,2h16.25A4.875,4.875,0,0,1,30,6.875v22.75A4.875,4.875,0,0,1,25.125,34.5H8.875A4.875,4.875,0,0,1,4,29.625Z" transform="translate(283 362)" fill="#626c7b" opacity="0.35"/>
    <path id="Path_125" data-name="Path 125" d="M8.4,12h5.583a1.523,1.523,0,0,1,1.4,1.625,1.523,1.523,0,0,1-1.4,1.625H8.4A1.523,1.523,0,0,1,7,13.625,1.523,1.523,0,0,1,8.4,12Z" transform="translate(284.875 369.25)" fill="#626c7b"/>
    <path id="Path_128" data-name="Path 128" d="M8.4,12h5.583a1.523,1.523,0,0,1,1.4,1.625,1.523,1.523,0,0,1-1.4,1.625H8.4A1.523,1.523,0,0,1,7,13.625,1.523,1.523,0,0,1,8.4,12Z" transform="translate(284.875 363.75)" fill="#626c7b"/>
    <path id="Path_126" data-name="Path 126" d="M8.4,16h5.583a1.523,1.523,0,0,1,1.4,1.625,1.523,1.523,0,0,1-1.4,1.625H8.4A1.523,1.523,0,0,1,7,17.625,1.523,1.523,0,0,1,8.4,16Z" transform="translate(284.875 370.75)" fill="#626c7b"/>
    <path id="Path_127" data-name="Path 127" d="M21.625,9.25h-13a1.625,1.625,0,0,1,0-3.25h13a1.625,1.625,0,0,1,0,3.25Z" transform="translate(284.875 364.5)" fill="#626c7b"/>
    <path id="Path_122" data-name="Path 122" d="M6.113,10.123a1.113,1.113,0,0,1-.787-1.9L12.671.878a1.113,1.113,0,0,1,1.574,1.574L6.9,9.8A1.108,1.108,0,0,1,6.113,10.123Z" transform="translate(294.641 385.451) rotate(-45)" fill="#626c7b"/>
    <path id="Path_123" data-name="Path 123" d="M6.822,15.681H3.445A.445.445,0,0,1,3,15.235V11.858a.445.445,0,0,1,.76-.315l3.377,3.377A.445.445,0,0,1,6.822,15.681Z" transform="translate(292.125 381.365) rotate(-45)" fill="#626c7b"/>
  </g>
</svg>
