<svg xmlns="http://www.w3.org/2000/svg" width="27.5" height="27.5" viewBox="0 0 20 18">
  <g id="Group_73" data-name="Group 73" transform="translate(-213 -718)">
    <g id="icons8_receipt" transform="translate(211 715)">
      <path id="Path_13" data-name="Path 13" d="M17.586,4,17,3.414a1.415,1.415,0,0,0-2,0h0a1.415,1.415,0,0,1-2,0h0a1.415,1.415,0,0,0-2,0h0a1.415,1.415,0,0,1-2,0H9a1.415,1.415,0,0,0-2,0L6.414,4A1.415,1.415,0,0,0,6,5v8H18V5A1.415,1.415,0,0,0,17.586,4Z" fill="#626c7b" opacity="0.35"/>
      <path id="Path_14" data-name="Path 14" d="M19,9H18v3a1,1,0,0,1-1,1H7a1,1,0,0,1-1-1V9H5a3,3,0,0,0-3,3v9H5V18a2,2,0,0,1,2-2H17a2,2,0,0,1,2,2v3h3V12A3,3,0,0,0,19,9Z" fill="#626c7b"/>
      <g id="Group_72" data-name="Group 72">
        <rect id="Rectangle_5" data-name="Rectangle 5" width="16" height="6" transform="translate(4 15)" fill="#626c7b" opacity="0.35"/>
        <circle id="Ellipse_7" data-name="Ellipse 7" cx="1" cy="1" r="1" transform="translate(11 18)" fill="#626c7b"/>
        <circle id="Ellipse_8" data-name="Ellipse 8" cx="1" cy="1" r="1" transform="translate(15 18)" fill="#626c7b"/>
        <circle id="Ellipse_9" data-name="Ellipse 9" cx="1" cy="1" r="1" transform="translate(7 18)" fill="#626c7b"/>
      </g>
    </g>
  </g>
</svg>
