<svg xmlns="http://www.w3.org/2000/svg" width="19.048" height="19.999" viewBox="0 0 19.048 19.999">
  <g id="icons8_notification_6" transform="translate(-2 -2.001)">
    <path id="Path_130" data-name="Path 130" d="M9,20a2.857,2.857,0,1,0,5.714,0Z" transform="translate(-0.333 -0.857)" fill="#fff"/>
    <path id="Path_131" data-name="Path 131" d="M18.19,10.254V8.947A6.851,6.851,0,0,0,11.729,2,6.665,6.665,0,0,0,4.857,8.667v1.588a6.665,6.665,0,0,1-1.333,4l-1.1,1.46A2.142,2.142,0,0,0,2,17H2a2.142,2.142,0,0,0,2.143,2.143H18.9A2.142,2.142,0,0,0,21.048,17h0a2.142,2.142,0,0,0-.429-1.286l-1.1-1.46A6.667,6.667,0,0,1,18.19,10.254Z" transform="translate(0 0)" fill="#fff" />
  </g>
</svg>