<svg xmlns="http://www.w3.org/2000/svg" width="26" height="32.5" viewBox="0 0 26 32.5">
  <g id="Group_77" data-name="Group 77" transform="translate(-206 -364)">
    <path id="Path_124" data-name="Path 124" d="M4,29.625V6.875A4.875,4.875,0,0,1,8.875,2h16.25A4.875,4.875,0,0,1,30,6.875v22.75A4.875,4.875,0,0,1,25.125,34.5H8.875A4.875,4.875,0,0,1,4,29.625Z" transform="translate(202 362)" fill="#626c7b" opacity="0.35"/>
    <circle id="Ellipse_28" data-name="Ellipse 28" cx="3" cy="3" r="3" transform="translate(211 376.49)" fill="#626c7b"/>
    <path id="Path_129" data-name="Path 129" d="M11.333,15H4.667a1.667,1.667,0,1,0,0,3.333h6.667a1.667,1.667,0,1,0,0-3.333Z" transform="translate(206 369.045)" fill="#626c7b"/>
    <circle id="Ellipse_28-2" data-name="Ellipse 28" cx="3" cy="3" r="3" transform="translate(221 372.111)" fill="#626c7b"/>
    <path id="Path_129-2" data-name="Path 129" d="M11.333,15H4.667a1.667,1.667,0,1,0,0,3.333h6.667a1.667,1.667,0,1,0,0-3.333Z" transform="translate(216 364.666)" fill="#626c7b"/>
  </g>
</svg>
