<svg xmlns="http://www.w3.org/2000/svg" width="16" height="20" viewBox="0 0 16 20">
  <g id="Group_71" data-name="Group 71" transform="translate(-4 -2)">
    <g id="Group_70" data-name="Group 70">
      <path id="Path_15" data-name="Path 15" d="M17,2.414h0a1.415,1.415,0,0,1-2,0h0a1.415,1.415,0,0,0-2,0h0a1.415,1.415,0,0,1-2,0h0a1.415,1.415,0,0,0-2,0H9a1.415,1.415,0,0,1-2,0H7a1.415,1.415,0,0,0-2,0L4.414,3A1.415,1.415,0,0,0,4,4V19a3,3,0,0,0,3,3H17a3,3,0,0,0,3-3V4a1.415,1.415,0,0,0-.414-1L19,2.414A1.415,1.415,0,0,0,17,2.414Z" fill="#626c7b" opacity="0.35"/>
      <g id="Group_69" data-name="Group 69">
        <path id="Path_16" data-name="Path 16" d="M16,9H8A1,1,0,0,1,8,7h8a1,1,0,0,1,0,2Z" fill="#626c7b"/>
        <path id="Path_17" data-name="Path 17" d="M12,13H8a1,1,0,0,1,0-2h4a1,1,0,0,1,0,2Z" fill="#626c7b"/>
        <circle id="Ellipse_10" data-name="Ellipse 10" cx="1" cy="1" r="1" transform="translate(15 11)" fill="#626c7b"/>
        <path id="Path_18" data-name="Path 18" d="M12,17H8a1,1,0,0,1,0-2h4a1,1,0,0,1,0,2Z" fill="#626c7b"/>
      </g>
    </g>
    <circle id="Ellipse_11" data-name="Ellipse 11" cx="1" cy="1" r="1" transform="translate(15 15)" fill="#626c7b"/>
  </g>
</svg>
