<svg xmlns="http://www.w3.org/2000/svg" width="24" height="30" viewBox="0 0 24 30">
  <g id="Group_72" data-name="Group 72" transform="translate(-4 -2)">
    <path id="Path_111" data-name="Path 111" d="M23.5,2.621h0a2.122,2.122,0,0,1-3,0h0a2.122,2.122,0,0,0-3,0h0a2.122,2.122,0,0,1-3,0h0a2.122,2.122,0,0,0-3,0h0a2.122,2.122,0,0,1-3,0h0a2.122,2.122,0,0,0-3,0L4.621,3.5A2.122,2.122,0,0,0,4,5V27.5A4.5,4.5,0,0,0,8.5,32h15A4.5,4.5,0,0,0,28,27.5V5a2.122,2.122,0,0,0-.621-1.5L26.5,2.621A2.122,2.122,0,0,0,23.5,2.621Z" fill="#626c7b" opacity="0.35"/>
    <path id="Path_112" data-name="Path 112" d="M20.5,10H8.5a1.5,1.5,0,0,1,0-3h12a1.5,1.5,0,0,1,0,3Z" transform="translate(1.5 2.5)" fill="#626c7b"/>
    <path id="Path_113" data-name="Path 113" d="M14.5,14h-6a1.5,1.5,0,0,1,0-3h6a1.5,1.5,0,0,1,0,3Z" transform="translate(1.5 4.5)" fill="#626c7b"/>
    <circle id="Ellipse_23" data-name="Ellipse 23" cx="1.5" cy="1.5" r="1.5" transform="translate(20 16)" fill="#626c7b"/>
    <path id="Path_114" data-name="Path 114" d="M14.5,18h-6a1.5,1.5,0,0,1,0-3h6a1.5,1.5,0,0,1,0,3Z" transform="translate(1.5 6.5)" fill="#626c7b"/>
    <circle id="Ellipse_24" data-name="Ellipse 24" cx="1.5" cy="1.5" r="1.5" transform="translate(20 22)" fill="#626c7b"/>
  </g>
</svg>
