<svg xmlns="http://www.w3.org/2000/svg" width="29" height="29" viewBox="0 0 29 29">
  <g id="icons8_plot" transform="translate(-2.834 -3)">
    <circle id="Ellipse_35" data-name="Ellipse 35" cx="1.5" cy="1.5" r="1.5" transform="translate(28.834 29)" fill="#626c7b" opacity="0.35"/>
    <circle id="Ellipse_36" data-name="Ellipse 36" cx="1.5" cy="1.5" r="1.5" transform="translate(28.834 16)" fill="#626c7b" opacity="0.35"/>
    <circle id="Ellipse_37" data-name="Ellipse 37" cx="1.5" cy="1.5" r="1.5" transform="translate(21.834 3)" fill="#626c7b" opacity="0.35"/>
    <circle id="Ellipse_38" data-name="Ellipse 38" cx="1.5" cy="1.5" r="1.5" transform="translate(15.834 22)" fill="#626c7b" opacity="0.35"/>
    <circle id="Ellipse_39" data-name="Ellipse 39" cx="1.5" cy="1.5" r="1.5" transform="translate(15.834 16)" fill="#626c7b" opacity="0.35"/>
    <circle id="Ellipse_40" data-name="Ellipse 40" cx="1.5" cy="1.5" r="1.5" transform="translate(28.834 10)" fill="#626c7b" opacity="0.35"/>
    <circle id="Ellipse_41" data-name="Ellipse 41" cx="1.5" cy="1.5" r="1.5" transform="translate(21.834 29)" fill="#626c7b" opacity="0.35"/>
    <circle id="Ellipse_42" data-name="Ellipse 42" cx="1.5" cy="1.5" r="1.5" transform="translate(15.834 29)" fill="#626c7b" opacity="0.35"/>
    <circle id="Ellipse_43" data-name="Ellipse 43" cx="1.5" cy="1.5" r="1.5" transform="translate(9.834 29)" fill="#626c7b" opacity="0.35"/>
    <circle id="Ellipse_44" data-name="Ellipse 44" cx="1.5" cy="1.5" r="1.5" transform="translate(2.834 29)" fill="#626c7b" opacity="0.35"/>
    <circle id="Ellipse_45" data-name="Ellipse 45" cx="1.5" cy="1.5" r="1.5" transform="translate(2.834 16)" fill="#626c7b" opacity="0.35"/>
    <circle id="Ellipse_46" data-name="Ellipse 46" cx="1.5" cy="1.5" r="1.5" transform="translate(2.834 10)" fill="#626c7b" opacity="0.35"/>
    <circle id="Ellipse_47" data-name="Ellipse 47" cx="1.5" cy="1.5" r="1.5" transform="translate(28.834 3)" fill="#626c7b" opacity="0.35"/>
    <circle id="Ellipse_48" data-name="Ellipse 48" cx="1.602" cy="1.602" r="1.602" transform="translate(9.728 3)" fill="#626c7b" opacity="0.35"/>
    <circle id="Ellipse_49" data-name="Ellipse 49" cx="1.5" cy="1.5" r="1.5" transform="translate(15.834 3)" fill="#626c7b" opacity="0.35"/>
    <circle id="Ellipse_50" data-name="Ellipse 50" cx="1.5" cy="1.5" r="1.5" transform="translate(2.834 3)" fill="#626c7b" opacity="0.35"/>
    <path id="Path_151" data-name="Path 151" d="M17.417,7c4.806,0,6.568,4,7.689,6.728l.481,1.282c1.282,3.044,2.243,4.806,4.645,4.806a1.6,1.6,0,0,1,0,3.2c-4.806,0-6.568-4-7.689-6.728l-.481-1.282C20.781,11.966,19.82,10.2,17.417,10.2s-3.364,1.762-4.645,4.806l-.481,1.282C11.17,19.014,9.408,23.019,4.6,23.019a1.6,1.6,0,0,1,0-3.2c2.4,0,3.364-1.762,4.645-4.806l.481-1.282C10.849,11,12.611,7,17.417,7Z" transform="translate(0 2.408)" fill="#626c7b"/>
  </g>
</svg>
