<svg xmlns="http://www.w3.org/2000/svg" width="20" height="20" viewBox="0 0 20 20">
  <g id="icons8_sync_4" transform="translate(-2 -2)">
    <circle id="Ellipse_59" data-name="Ellipse 59" cx="10" cy="10" r="10" transform="translate(2 2)" fill="#fff" opacity="0.35"/>
    <path id="Path_1027" data-name="Path 1027" d="M18,10.271,17.988,7.82a.816.816,0,0,0-1.394-.573L14.241,9.6a.817.817,0,0,0,.573,1.394l2.451.012A.731.731,0,0,0,18,10.271Z" fill="#fff"/>
    <path id="Path_1028" data-name="Path 1028" d="M6,13.729l.012,2.451a.816.816,0,0,0,1.394.573L9.759,14.4a.817.817,0,0,0-.573-1.394l-2.451-.012A.731.731,0,0,0,6,13.729Z" fill="#fff"/>
    <path id="Path_1029" data-name="Path 1029" d="M7.44,10.944a1,1,0,0,1-.91-1.412A6,6,0,0,1,16.805,8.406a1,1,0,1,1-1.6,1.2,4,4,0,0,0-6.851.751A1,1,0,0,1,7.44,10.944Z" fill="#fff"/>
    <path id="Path_1030" data-name="Path 1030" d="M12,18a6.028,6.028,0,0,1-4.8-2.406,1,1,0,1,1,1.6-1.2,4,4,0,0,0,6.851-.751,1,1,0,1,1,1.822.823A6.01,6.01,0,0,1,12,18Z" fill="#fff"/>
  </g>
</svg>